<svg id="Capa_1" enable-background="new 0 0 512 512" height="512" viewBox="0 0 512 512" width="512" xmlns="http://www.w3.org/2000/svg"><g><g><g><path d="m260.551 156.098c8.62-8.737 11.433-22.391 12.251-32.557-10.765.929-24.357 4.057-32.696 12.396-6.409 6.41-9.635 15.522-11.225 23.96 8.706-2.579 17.789-3.912 27.008-3.912 1.56 0 3.114.038 4.662.113z"/><path d="m255.889 185.985c-12.4 0-24.439 3.499-34.832 10.124-5.027 3.363-11.768 3.343-16.775-.053-10.375-6.589-22.383-10.071-34.75-10.071-17.357 0-33.669 6.771-45.931 19.065-12.266 12.298-19.087 28.697-19.207 46.177-.233 33.7 21.933 58.404 55.775 92.247 6.589 6.587 10.98 6.987 31.482-2.434 5.153-2.368 10.481-4.816 16.169-6.778 1.584-.546 3.236-.819 4.89-.819 1.653 0 3.306.273 4.89.819 5.688 1.961 11.017 4.41 16.17 6.778 20.503 9.421 24.894 9.021 31.483 2.434 33.843-33.843 56.009-58.548 55.775-92.247-.121-17.48-6.942-33.88-19.208-46.178-12.261-12.293-28.574-19.064-45.931-19.064z"/></g><path d="m310.049 425.59c0-56.032 39.806-102.926 92.579-113.798 12.945-29.782 19.478-59.311 19.478-88.396v-105.209c0-5.574-3.091-10.689-8.026-13.28l-196.054-102.951c-4.367-2.293-9.58-2.293-13.947 0l-196.053 102.951c-4.935 2.591-8.026 7.706-8.026 13.28v105.209c0 60.786 28.461 123.514 84.593 186.44 43.649 48.933 91.814 83.811 110.497 96.535 4.849 3.302 10.405 4.953 15.963 4.953s11.114-1.651 15.964-4.954c14.894-10.144 48.528-34.381 83.671-68.58-.42-4.01-.639-8.08-.639-12.2zm-59.55-47.564c-10.503-1.107-20.036-5.488-29.257-9.725-2.937-1.35-5.773-2.652-8.532-3.801-2.76 1.148-5.595 2.451-8.531 3.801-9.22 4.237-18.754 8.618-29.257 9.725-1.645.174-3.269.26-4.869.26-11.618 0-22.06-4.561-31.097-13.598-38.001-38-64.876-68.398-64.562-113.668.176-25.399 10.107-49.249 27.966-67.155 17.931-17.979 41.786-27.88 67.172-27.88 9.633 0 19.118 1.454 28.179 4.266v-52.669c0-8.284 6.716-15 15-15 8.242 0 14.925 6.649 14.994 14.875 25.536-17.372 60.044-14.005 61.675-13.834 7.043.741 12.609 6.307 13.35 13.351.159 1.513 3.082 31.47-10.486 56.198 11.389 4.723 21.846 11.696 30.819 20.693 17.857 17.906 27.789 41.755 27.966 67.155.313 45.27-26.562 75.667-64.562 113.668-10.284 10.282-22.389 14.772-35.968 13.338z"/></g><path d="m426.024 339.416c-47.407 0-85.975 38.657-85.975 86.173 0 47.517 38.568 86.174 85.975 86.174 47.408 0 85.976-38.657 85.976-86.174 0-47.516-38.568-86.173-85.976-86.173zm34.671 65.119-30.884 53.491c-2.68 4.641-7.632 7.5-12.99 7.5-5.359 0-10.311-2.859-12.99-7.5l-12.478-21.613c-4.142-7.174-1.684-16.348 5.49-20.49 6.882-3.971 15.603-1.874 19.959 4.637l17.912-31.023c4.143-7.175 13.314-9.633 20.49-5.49 7.175 4.14 9.633 13.313 5.491 20.488z"/></g></svg>