<svg id="Capa_1" enable-background="new 0 0 511.311 511.311" height="512" viewBox="0 0 511.311 511.311" width="512" xmlns="http://www.w3.org/2000/svg"><g><path d="m345.261 62.967v-35.19c0-15.892-15.31-27.297-30.537-22.747l-225.022 57.167v.77z" fill="#e9c278"/><path d="m393.28 507.297h-303.578v-445.1h303.578c15.646 0 28.329 12.683 28.329 28.329v388.442c0 15.645-12.684 28.329-28.329 28.329z" fill="#f9fbfc"/><g fill="#eaa895"><path d="m408.886 72.148c0 1.719 1.394 3.114 3.113 3.114 1.599 0 2.902-1.21 3.078-2.763-1.027-1.239-2.162-2.385-3.382-3.433-1.574.154-2.809 1.467-2.809 3.082z"/><path d="m401.586 79.449c-1.72 0-3.113 1.394-3.113 3.113 0 1.72 1.394 3.114 3.113 3.114 1.72 0 3.113-1.394 3.113-3.114s-1.394-3.113-3.113-3.113z"/><path d="m412 89.107c-1.719 0-3.113 1.394-3.113 3.114 0 1.719 1.394 3.114 3.113 3.114 1.72 0 3.113-1.395 3.113-3.114 0-1.721-1.394-3.114-3.113-3.114z"/><path d="m401.586 99.521c-1.72 0-3.113 1.394-3.113 3.113 0 1.72 1.394 3.114 3.113 3.114 1.72 0 3.113-1.394 3.113-3.114 0-1.719-1.394-3.113-3.113-3.113z"/><path d="m412 109.179c-1.719 0-3.113 1.394-3.113 3.114 0 1.719 1.394 3.114 3.113 3.114 1.72 0 3.113-1.395 3.113-3.114 0-1.72-1.394-3.114-3.113-3.114z"/><path d="m401.586 119.593c-1.72 0-3.113 1.394-3.113 3.113 0 1.72 1.394 3.114 3.113 3.114 1.72 0 3.113-1.394 3.113-3.114 0-1.719-1.394-3.113-3.113-3.113z"/><ellipse cx="412" cy="132.365" rx="3.113" ry="3.114" transform="matrix(1 -.011 .011 1 -1.452 4.607)"/><path d="m401.586 139.666c-1.72 0-3.113 1.394-3.113 3.113 0 1.72 1.394 3.114 3.113 3.114 1.72 0 3.113-1.394 3.113-3.114s-1.394-3.113-3.113-3.113z"/><path d="m412 149.324c-1.719 0-3.113 1.394-3.113 3.114 0 1.719 1.394 3.114 3.113 3.114 1.72 0 3.113-1.395 3.113-3.114 0-1.721-1.394-3.114-3.113-3.114z"/><path d="m401.586 159.738c-1.72 0-3.113 1.394-3.113 3.113 0 1.72 1.394 3.114 3.113 3.114 1.72 0 3.113-1.394 3.113-3.114 0-1.719-1.394-3.113-3.113-3.113z"/><path d="m412 169.396c-1.719 0-3.113 1.394-3.113 3.114 0 1.719 1.394 3.114 3.113 3.114 1.72 0 3.113-1.395 3.113-3.114 0-1.72-1.394-3.114-3.113-3.114z"/><path d="m401.586 179.81c-1.72 0-3.113 1.394-3.113 3.113 0 1.72 1.394 3.114 3.113 3.114 1.72 0 3.113-1.394 3.113-3.114 0-1.719-1.394-3.113-3.113-3.113z"/><path d="m412 189.468c-1.719 0-3.113 1.394-3.113 3.114 0 1.719 1.394 3.114 3.113 3.114 1.72 0 3.113-1.395 3.113-3.114 0-1.72-1.394-3.114-3.113-3.114z"/><path d="m401.586 199.883c-1.72 0-3.113 1.394-3.113 3.113 0 1.72 1.394 3.114 3.113 3.114 1.72 0 3.113-1.394 3.113-3.114s-1.394-3.113-3.113-3.113z"/><path d="m412 209.541c-1.719 0-3.113 1.394-3.113 3.114 0 1.719 1.394 3.114 3.113 3.114 1.72 0 3.113-1.395 3.113-3.114 0-1.721-1.394-3.114-3.113-3.114z"/><path d="m401.586 219.955c-1.72 0-3.113 1.394-3.113 3.113 0 1.72 1.394 3.114 3.113 3.114 1.72 0 3.113-1.394 3.113-3.114 0-1.719-1.394-3.113-3.113-3.113z"/><ellipse cx="412" cy="232.727" rx="3.113" ry="3.114" transform="matrix(1 -.011 .011 1 -2.572 4.613)"/><path d="m401.586 240.027c-1.72 0-3.113 1.394-3.113 3.113 0 1.72 1.394 3.114 3.113 3.114 1.72 0 3.113-1.394 3.113-3.114 0-1.719-1.394-3.113-3.113-3.113z"/><path d="m412 249.685c-1.719 0-3.113 1.394-3.113 3.114 0 1.719 1.394 3.114 3.113 3.114 1.72 0 3.113-1.395 3.113-3.114 0-1.72-1.394-3.114-3.113-3.114z"/><path d="m401.586 260.1c-1.72 0-3.113 1.394-3.113 3.113 0 1.72 1.394 3.114 3.113 3.114 1.72 0 3.113-1.394 3.113-3.114s-1.394-3.113-3.113-3.113z"/><path d="m412 269.758c-1.719 0-3.113 1.394-3.113 3.114 0 1.719 1.394 3.114 3.113 3.114 1.72 0 3.113-1.395 3.113-3.114 0-1.721-1.394-3.114-3.113-3.114z"/><path d="m401.586 280.172c-1.72 0-3.113 1.394-3.113 3.113 0 1.72 1.394 3.114 3.113 3.114 1.72 0 3.113-1.394 3.113-3.114 0-1.719-1.394-3.113-3.113-3.113z"/><path d="m412 289.83c-1.719 0-3.113 1.394-3.113 3.114 0 1.719 1.394 3.114 3.113 3.114 1.72 0 3.113-1.395 3.113-3.114 0-1.72-1.394-3.114-3.113-3.114z"/><path d="m401.586 300.244c-1.72 0-3.113 1.394-3.113 3.113 0 1.72 1.394 3.114 3.113 3.114 1.72 0 3.113-1.394 3.113-3.114 0-1.719-1.394-3.113-3.113-3.113z"/><path d="m412 309.902c-1.719 0-3.113 1.394-3.113 3.114 0 1.719 1.394 3.114 3.113 3.114 1.72 0 3.113-1.395 3.113-3.114 0-1.72-1.394-3.114-3.113-3.114z"/><path d="m401.586 320.317c-1.72 0-3.113 1.394-3.113 3.113 0 1.72 1.394 3.114 3.113 3.114 1.72 0 3.113-1.394 3.113-3.114s-1.394-3.113-3.113-3.113z"/><ellipse cx="412" cy="333.088" rx="3.113" ry="3.114" transform="matrix(1 -.011 .011 1 -3.692 4.619)"/><path d="m401.586 340.389c-1.72 0-3.113 1.394-3.113 3.113 0 1.72 1.394 3.114 3.113 3.114 1.72 0 3.113-1.394 3.113-3.114 0-1.719-1.394-3.113-3.113-3.113z"/><path d="m412 350.047c-1.719 0-3.113 1.394-3.113 3.114 0 1.719 1.394 3.114 3.113 3.114 1.72 0 3.113-1.395 3.113-3.114 0-1.72-1.394-3.114-3.113-3.114z"/><path d="m401.586 360.461c-1.72 0-3.113 1.394-3.113 3.113 0 1.72 1.394 3.114 3.113 3.114 1.72 0 3.113-1.394 3.113-3.114 0-1.719-1.394-3.113-3.113-3.113z"/><ellipse cx="412" cy="373.233" rx="3.113" ry="3.114" transform="matrix(1 -.011 .011 1 -4.14 4.622)"/><path d="m401.586 380.534c-1.72 0-3.113 1.394-3.113 3.113 0 1.72 1.394 3.114 3.113 3.114 1.72 0 3.113-1.394 3.113-3.114s-1.394-3.113-3.113-3.113z"/><path d="m412 390.192c-1.719 0-3.113 1.394-3.113 3.114 0 1.719 1.394 3.114 3.113 3.114 1.72 0 3.113-1.395 3.113-3.114 0-1.721-1.394-3.114-3.113-3.114z"/><path d="m401.586 400.606c-1.72 0-3.113 1.394-3.113 3.113 0 1.72 1.394 3.114 3.113 3.114 1.72 0 3.113-1.394 3.113-3.114 0-1.719-1.394-3.113-3.113-3.113z"/><path d="m412 410.264c-1.719 0-3.113 1.394-3.113 3.114 0 1.719 1.394 3.114 3.113 3.114 1.72 0 3.113-1.395 3.113-3.114 0-1.72-1.394-3.114-3.113-3.114z"/><path d="m401.586 420.678c-1.72 0-3.113 1.394-3.113 3.113 0 1.72 1.394 3.114 3.113 3.114 1.72 0 3.113-1.394 3.113-3.114 0-1.719-1.394-3.113-3.113-3.113z"/><path d="m412 430.336c-1.719 0-3.113 1.394-3.113 3.114 0 1.719 1.394 3.114 3.113 3.114 1.72 0 3.113-1.395 3.113-3.114 0-1.72-1.394-3.114-3.113-3.114z"/><path d="m401.586 440.751c-1.72 0-3.113 1.394-3.113 3.113 0 1.72 1.394 3.114 3.113 3.114 1.72 0 3.113-1.394 3.113-3.114s-1.394-3.113-3.113-3.113z"/><path d="m412 450.409c-1.719 0-3.113 1.394-3.113 3.114 0 1.719 1.394 3.114 3.113 3.114 1.72 0 3.113-1.395 3.113-3.114 0-1.721-1.394-3.114-3.113-3.114z"/><path d="m401.586 460.823c-1.72 0-3.113 1.394-3.113 3.113 0 1.72 1.394 3.114 3.113 3.114 1.72 0 3.113-1.394 3.113-3.114 0-1.719-1.394-3.113-3.113-3.113z"/><ellipse cx="412" cy="473.595" rx="3.113" ry="3.114" transform="matrix(1 -.011 .011 1 -5.26 4.628)"/><path d="m401.586 480.895c-1.72 0-3.113 1.394-3.113 3.113 0 1.72 1.394 3.114 3.113 3.114 1.72 0 3.113-1.394 3.113-3.114 0-1.719-1.394-3.113-3.113-3.113z"/><path d="m415.113 493.667c0-1.72-1.394-3.114-3.113-3.114s-3.113 1.394-3.113 3.114c0 1.719 1.394 3.114 3.113 3.114s3.113-1.395 3.113-3.114z"/><path d="m404.699 504.081c0-1.719-1.394-3.113-3.113-3.113-1.72 0-3.113 1.394-3.113 3.113 0 1.005.483 1.888 1.221 2.457 1.689-.397 3.321-.941 4.879-1.624.074-.267.126-.542.126-.833z"/><path d="m391.927 69.034c-1.719 0-3.113 1.394-3.113 3.114 0 1.719 1.394 3.114 3.113 3.114 1.72 0 3.114-1.395 3.114-3.114 0-1.72-1.394-3.114-3.114-3.114z"/><path d="m381.513 79.449c-1.719 0-3.113 1.394-3.113 3.113 0 1.72 1.394 3.114 3.113 3.114 1.72 0 3.114-1.394 3.114-3.114s-1.394-3.113-3.114-3.113z"/><path d="m391.927 89.107c-1.719 0-3.113 1.394-3.113 3.114 0 1.719 1.394 3.114 3.113 3.114 1.72 0 3.114-1.395 3.114-3.114 0-1.721-1.394-3.114-3.114-3.114z"/><path d="m381.513 99.521c-1.719 0-3.113 1.394-3.113 3.113 0 1.72 1.394 3.114 3.113 3.114 1.72 0 3.114-1.394 3.114-3.114 0-1.719-1.394-3.113-3.114-3.113z"/><path d="m391.927 109.179c-1.719 0-3.113 1.394-3.113 3.114 0 1.719 1.394 3.114 3.113 3.114 1.72 0 3.114-1.395 3.114-3.114 0-1.72-1.394-3.114-3.114-3.114z"/><path d="m381.513 119.593c-1.719 0-3.113 1.394-3.113 3.113 0 1.72 1.394 3.114 3.113 3.114 1.72 0 3.114-1.394 3.114-3.114 0-1.719-1.394-3.113-3.114-3.113z"/><circle cx="391.927" cy="132.365" r="3.114"/><path d="m381.513 139.666c-1.719 0-3.113 1.394-3.113 3.113 0 1.72 1.394 3.114 3.113 3.114 1.72 0 3.114-1.394 3.114-3.114s-1.394-3.113-3.114-3.113z"/><path d="m391.927 149.324c-1.719 0-3.113 1.394-3.113 3.114 0 1.719 1.394 3.114 3.113 3.114 1.72 0 3.114-1.395 3.114-3.114 0-1.721-1.394-3.114-3.114-3.114z"/><path d="m381.513 159.738c-1.719 0-3.113 1.394-3.113 3.113 0 1.72 1.394 3.114 3.113 3.114 1.72 0 3.114-1.394 3.114-3.114 0-1.719-1.394-3.113-3.114-3.113z"/><path d="m391.927 169.396c-1.719 0-3.113 1.394-3.113 3.114 0 1.719 1.394 3.114 3.113 3.114 1.72 0 3.114-1.395 3.114-3.114 0-1.72-1.394-3.114-3.114-3.114z"/><path d="m381.513 179.81c-1.719 0-3.113 1.394-3.113 3.113 0 1.72 1.394 3.114 3.113 3.114 1.72 0 3.114-1.394 3.114-3.114 0-1.719-1.394-3.113-3.114-3.113z"/><path d="m391.927 189.468c-1.719 0-3.113 1.394-3.113 3.114 0 1.719 1.394 3.114 3.113 3.114 1.72 0 3.114-1.395 3.114-3.114 0-1.72-1.394-3.114-3.114-3.114z"/><path d="m381.513 199.883c-1.719 0-3.113 1.394-3.113 3.113 0 1.72 1.394 3.114 3.113 3.114 1.72 0 3.114-1.394 3.114-3.114s-1.394-3.113-3.114-3.113z"/><path d="m391.927 209.541c-1.719 0-3.113 1.394-3.113 3.114 0 1.719 1.394 3.114 3.113 3.114 1.72 0 3.114-1.395 3.114-3.114 0-1.721-1.394-3.114-3.114-3.114z"/><path d="m381.513 219.955c-1.719 0-3.113 1.394-3.113 3.113 0 1.72 1.394 3.114 3.113 3.114 1.72 0 3.114-1.394 3.114-3.114 0-1.719-1.394-3.113-3.114-3.113z"/><circle cx="391.927" cy="232.727" r="3.114"/><path d="m381.513 240.027c-1.719 0-3.113 1.394-3.113 3.113 0 1.72 1.394 3.114 3.113 3.114 1.72 0 3.114-1.394 3.114-3.114 0-1.719-1.394-3.113-3.114-3.113z"/><path d="m391.927 249.685c-1.719 0-3.113 1.394-3.113 3.114 0 1.719 1.394 3.114 3.113 3.114 1.72 0 3.114-1.395 3.114-3.114 0-1.72-1.394-3.114-3.114-3.114z"/><path d="m381.513 260.1c-1.719 0-3.113 1.394-3.113 3.113 0 1.72 1.394 3.114 3.113 3.114 1.72 0 3.114-1.394 3.114-3.114s-1.394-3.113-3.114-3.113z"/><path d="m391.927 269.758c-1.719 0-3.113 1.394-3.113 3.114 0 1.719 1.394 3.114 3.113 3.114 1.72 0 3.114-1.395 3.114-3.114 0-1.721-1.394-3.114-3.114-3.114z"/><path d="m381.513 280.172c-1.719 0-3.113 1.394-3.113 3.113 0 1.72 1.394 3.114 3.113 3.114 1.72 0 3.114-1.394 3.114-3.114 0-1.719-1.394-3.113-3.114-3.113z"/><path d="m391.927 289.83c-1.719 0-3.113 1.394-3.113 3.114 0 1.719 1.394 3.114 3.113 3.114 1.72 0 3.114-1.395 3.114-3.114 0-1.72-1.394-3.114-3.114-3.114z"/><path d="m381.513 300.244c-1.719 0-3.113 1.394-3.113 3.113 0 1.72 1.394 3.114 3.113 3.114 1.72 0 3.114-1.394 3.114-3.114 0-1.719-1.394-3.113-3.114-3.113z"/><path d="m391.927 309.902c-1.719 0-3.113 1.394-3.113 3.114 0 1.719 1.394 3.114 3.113 3.114 1.72 0 3.114-1.395 3.114-3.114 0-1.72-1.394-3.114-3.114-3.114z"/><path d="m381.513 320.317c-1.719 0-3.113 1.394-3.113 3.113 0 1.72 1.394 3.114 3.113 3.114 1.72 0 3.114-1.394 3.114-3.114s-1.394-3.113-3.114-3.113z"/><circle cx="391.927" cy="333.088" r="3.114"/><path d="m381.513 340.389c-1.719 0-3.113 1.394-3.113 3.113 0 1.72 1.394 3.114 3.113 3.114 1.72 0 3.114-1.394 3.114-3.114 0-1.719-1.394-3.113-3.114-3.113z"/><path d="m391.927 350.047c-1.719 0-3.113 1.394-3.113 3.114 0 1.719 1.394 3.114 3.113 3.114 1.72 0 3.114-1.395 3.114-3.114 0-1.72-1.394-3.114-3.114-3.114z"/><path d="m381.513 360.461c-1.719 0-3.113 1.394-3.113 3.113 0 1.72 1.394 3.114 3.113 3.114 1.72 0 3.114-1.394 3.114-3.114 0-1.719-1.394-3.113-3.114-3.113z"/><circle cx="391.927" cy="373.233" r="3.114"/><path d="m381.513 380.534c-1.719 0-3.113 1.394-3.113 3.113 0 1.72 1.394 3.114 3.113 3.114 1.72 0 3.114-1.394 3.114-3.114s-1.394-3.113-3.114-3.113z"/><path d="m391.927 390.192c-1.719 0-3.113 1.394-3.113 3.114 0 1.719 1.394 3.114 3.113 3.114 1.72 0 3.114-1.395 3.114-3.114 0-1.721-1.394-3.114-3.114-3.114z"/><path d="m381.513 400.606c-1.719 0-3.113 1.394-3.113 3.113 0 1.72 1.394 3.114 3.113 3.114 1.72 0 3.114-1.394 3.114-3.114 0-1.719-1.394-3.113-3.114-3.113z"/><path d="m391.927 410.264c-1.719 0-3.113 1.394-3.113 3.114 0 1.719 1.394 3.114 3.113 3.114 1.72 0 3.114-1.395 3.114-3.114 0-1.72-1.394-3.114-3.114-3.114z"/><path d="m381.513 420.678c-1.719 0-3.113 1.394-3.113 3.113 0 1.72 1.394 3.114 3.113 3.114 1.72 0 3.114-1.394 3.114-3.114 0-1.719-1.394-3.113-3.114-3.113z"/><path d="m391.927 430.336c-1.719 0-3.113 1.394-3.113 3.114 0 1.719 1.394 3.114 3.113 3.114 1.72 0 3.114-1.395 3.114-3.114 0-1.72-1.394-3.114-3.114-3.114z"/><path d="m381.513 440.751c-1.719 0-3.113 1.394-3.113 3.113 0 1.72 1.394 3.114 3.113 3.114 1.72 0 3.114-1.394 3.114-3.114s-1.394-3.113-3.114-3.113z"/><path d="m391.927 450.409c-1.719 0-3.113 1.394-3.113 3.114 0 1.719 1.394 3.114 3.113 3.114 1.72 0 3.114-1.395 3.114-3.114 0-1.721-1.394-3.114-3.114-3.114z"/><path d="m381.513 460.823c-1.719 0-3.113 1.394-3.113 3.113 0 1.72 1.394 3.114 3.113 3.114 1.72 0 3.114-1.394 3.114-3.114 0-1.719-1.394-3.113-3.114-3.113z"/><circle cx="391.927" cy="473.595" r="3.114"/><path d="m381.513 480.895c-1.719 0-3.113 1.394-3.113 3.113 0 1.72 1.394 3.114 3.113 3.114 1.72 0 3.114-1.394 3.114-3.114 0-1.719-1.394-3.113-3.114-3.113z"/><path d="m395.041 493.667c0-1.72-1.394-3.114-3.114-3.114-1.719 0-3.113 1.394-3.113 3.114 0 1.719 1.394 3.114 3.113 3.114 1.72 0 3.114-1.395 3.114-3.114z"/><path d="m381.513 500.968c-1.719 0-3.113 1.394-3.113 3.113 0 1.72 1.394 3.114 3.113 3.114 1.72 0 3.114-1.394 3.114-3.114 0-1.719-1.394-3.113-3.114-3.113z"/><path d="m371.855 69.034c-1.137 0-2.121.617-2.665 1.526 1.37 1.375 2.595 2.892 3.663 4.523 1.227-.418 2.116-1.567 2.116-2.935 0-1.72-1.394-3.114-3.114-3.114z"/><path d="m371.855 496.781c1.72 0 3.113-1.395 3.113-3.114 0-.691-.233-1.324-.614-1.841-.892 1.737-1.954 3.371-3.17 4.877.217.048.44.078.671.078z"/></g><path d="m334.087 391.822h-171.884c-2.217 0-4.015-1.798-4.015-4.015s1.798-4.014 4.015-4.014h171.884c2.217 0 4.014 1.798 4.014 4.014.001 2.217-1.797 4.015-4.014 4.015z" fill="#31373d"/><path d="m334.087 433.987h-171.884c-2.217 0-4.015-1.797-4.015-4.014s1.798-4.014 4.015-4.014h171.884c2.217 0 4.014 1.797 4.014 4.014.001 2.217-1.797 4.014-4.014 4.014z" fill="#31373d"/><path d="m334.087 233.727h-6.239c-4.24-36.321-33.066-65.118-69.401-69.31v-20.766c0-5.542-4.102-10.036-9.162-10.036s-9.162 4.495-9.162 10.036v20.766c-36.336 4.193-65.161 32.989-69.401 69.31h-8.519c-5.543 0-10.036 4.493-10.036 10.036 0 5.541 4.493 10.036 10.036 10.036h171.884c5.543 0 10.036-4.495 10.036-10.036 0-5.543-4.493-10.036-10.036-10.036z" fill="#eaa895"/><g fill="#31373d"><path d="m334.087 229.713h-2.744c-5.686-35.255-33.612-63.147-68.882-68.79v-17.271c0-7.748-5.911-14.051-13.176-14.051-7.266 0-13.176 6.303-13.176 14.051v17.271c-35.269 5.642-63.195 33.535-68.882 68.79h-5.024c-7.748 0-14.051 6.303-14.051 14.051s6.303 14.051 14.051 14.051h171.884c7.748 0 14.051-6.303 14.051-14.051s-6.303-14.051-14.051-14.051zm-89.949-86.061c0-3.321 2.309-6.022 5.147-6.022s5.147 2.701 5.147 6.022v16.384c-1.704-.105-3.417-.177-5.147-.177s-3.443.072-5.147.177zm5.147 24.236c36.879 0 67.602 26.729 73.894 61.825h-147.788c6.292-35.096 37.015-61.825 73.894-61.825zm84.802 81.897h-171.884c-3.321 0-6.022-2.701-6.022-6.022s2.701-6.022 6.022-6.022h171.884c3.32 0 6.022 2.701 6.022 6.022s-2.701 6.022-6.022 6.022z"/><path d="m260.868 330.453c-1.94 0-3.513-1.573-3.513-3.513v-40.612c0-1.537 1-2.896 2.467-3.354 1.469-.456 3.062.093 3.936 1.357l22.019 31.885-.29-29.93c-.019-1.941 1.539-3.528 3.479-3.547h.034c1.924 0 3.493 1.551 3.512 3.478l.38 39.318c0 2.074-1.126 3.743-2.867 4.287-1.692.527-3.494-.152-4.588-1.735l-21.057-30.491v29.344c.001 1.94-1.571 3.513-3.512 3.513z"/><path d="m182.275 330.453c-1.907 0-3.593-1.21-4.201-3.02-.014-.042-.027-.083-.039-.126l-8.528-28.904-5.206 28.843c-.344 1.908-2.173 3.18-4.081 2.832-1.909-.345-3.177-2.172-2.833-4.081l7.152-39.623c.387-2.014 2.054-3.489 4.061-3.623 2.002-.146 3.857 1.103 4.499 3.011.014.041.027.082.039.124l9.094 30.822 8.776-30.785c.011-.04.024-.08.037-.121.621-1.914 2.463-3.148 4.465-3.058 2.008.114 3.691 1.569 4.093 3.541l7.583 39.676c.364 1.905-.885 3.746-2.791 4.11-1.91.371-3.746-.885-4.11-2.79l-5.523-28.901-8.235 28.887c-.011.04-.024.08-.037.121-.591 1.823-2.276 3.054-4.192 3.064-.007.001-.015.001-.023.001z"/><path d="m240.796 323.428h-13.475v-13.133h12.223c1.94 0 3.513-1.573 3.513-3.513s-1.573-3.513-3.513-3.513h-12.223v-13.133h13.475c1.94 0 3.513-1.573 3.513-3.513s-1.572-3.513-3.513-3.513h-16.988c-1.94 0-3.513 1.573-3.513 3.513v40.317c0 1.94 1.573 3.513 3.513 3.513h16.988c1.94 0 3.513-1.573 3.513-3.513s-1.573-3.512-3.513-3.512z"/><path d="m323.361 330.453c-.01 0-.02 0-.03 0-3.432-.004-6.59-.911-9.385-2.696-5.387-3.442-8.005-7.859-8.005-13.507v-27.998c0-1.94 1.573-3.513 3.513-3.513s3.513 1.573 3.513 3.513v27.998c0 3.184 1.424 5.453 4.762 7.586 1.65 1.054 3.539 1.589 5.613 1.592h.02c1.866 0 3.586-.391 5.117-1.162 5.142-2.589 5.736-5.831 5.736-8.045v-27.969c0-1.94 1.573-3.513 3.513-3.513s3.513 1.573 3.513 3.513v27.969c0 4.327-1.666 10.323-9.602 14.319-2.521 1.269-5.305 1.913-8.278 1.913z"/><path d="m393.177 58.183h-43.901v-30.406c0-8.855-4.073-16.968-11.175-22.259-7.078-5.272-15.982-6.86-24.442-4.359l-224.945 57.147c-.136.034-.262.088-.391.135-.071.026-.146.044-.216.074-.223.097-.436.212-.635.345-.037.024-.068.055-.103.08-.16.116-.313.238-.454.375-.058.056-.109.119-.163.177-.107.118-.21.238-.302.366-.054.076-.102.153-.151.231-.079.127-.15.259-.215.395-.041.085-.08.171-.115.259-.058.15-.103.304-.143.461-.021.081-.047.16-.063.244-.046.243-.075.492-.075.747v1.645 443.455c0 2.217 1.798 4.014 4.014 4.014h303.475c17.891 0 32.446-14.555 32.446-32.446v-388.234c0-17.891-14.555-32.446-32.446-32.446zm-77.464-49.262c.054-.014.108-.028.161-.044 6.03-1.803 12.383-.679 17.431 3.08 5.047 3.76 7.942 9.526 7.942 15.82v30.406h-219.438zm101.881 469.944c0 13.464-10.953 24.417-24.417 24.417h-299.46v-437.071h299.46c13.464 0 24.417 10.954 24.417 24.417z"/></g></g></svg>