<svg xmlns="http://www.w3.org/2000/svg" width="144.267" height="125.895" viewBox="0 0 144.267 125.895">
  <g id="Picture" transform="translate(-41.789 -73.873)">
    <rect id="Rectangle_197" data-name="Rectangle 197" width="164.517" height="1.04" transform="matrix(0.773, -0.634, 0.634, 0.773, 56.716, 179.596)" fill="#e6e6e6"/>
    <rect id="Rectangle_198" data-name="Rectangle 198" width="1.04" height="164.847" transform="matrix(0.636, -0.772, 0.772, 0.636, 56.732, 76.108)" fill="#e6e6e6"/>
    <path id="Path_183" data-name="Path 183" d="M281.73,335.186v-100.4a3.646,3.646,0,0,1,3.642-3.642H409.186a3.646,3.646,0,0,1,3.642,3.642v100.4a3.646,3.646,0,0,1-3.642,3.642H285.372A3.646,3.646,0,0,1,281.73,335.186Zm3.642-103a2.6,2.6,0,0,0-2.6,2.6v100.4a2.6,2.6,0,0,0,2.6,2.6H409.186a2.6,2.6,0,0,0,2.6-2.6v-100.4a2.6,2.6,0,0,0-2.6-2.6Z" transform="translate(-226.772 -157.268)" fill="#3f3d56"/>
    <path id="Path_184" data-name="Path 184" d="M265.468,357.669v-100.4a3.646,3.646,0,0,1,3.642-3.642H392.924a3.646,3.646,0,0,1,3.642,3.642v100.4a3.646,3.646,0,0,1-3.642,3.642H269.11a3.646,3.646,0,0,1-3.642-3.642Z" transform="translate(-223.679 -161.543)" fill="#ef4b23"/>
    <path id="Path_185" data-name="Path 185" d="M328.965,343.671h63.21a1.287,1.287,0,0,0,.236-.019l-29.9-51.783a2.093,2.093,0,0,0-3.644,0l-20.064,34.75-.961,1.663Z" transform="translate(-235.753 -168.613)" fill="#fff"/>
    <path id="Path_186" data-name="Path 186" d="M105.286,194.811h21.581l-10.594-15.388-.762-1.109-.381-.554-.961,1.663Z" transform="translate(-12.074 -19.754)" opacity="0.2"/>
    <path id="Path_187" data-name="Path 187" d="M285.506,347.254h54.672l-10.594-15.389-.762-1.109L315.016,310.7a2.793,2.793,0,0,0-4.147-.248,2.5,2.5,0,0,0-.2.248Z" transform="translate(-227.49 -172.196)" fill="#fff"/>
    <circle id="Ellipse_5" data-name="Ellipse 5" cx="9.364" cy="9.364" r="9.364" transform="translate(89.858 116.792)" fill="#fff"/>
  </g>
</svg>
