<svg xmlns="http://www.w3.org/2000/svg" width="26" height="26" viewBox="0 0 26 26">
  <path id="Icon_awesome-save" data-name="Icon awesome-save" d="M25.184,7.934,20.316,3.066a2.786,2.786,0,0,0-1.97-.816H2.786A2.786,2.786,0,0,0,0,5.036V25.464A2.786,2.786,0,0,0,2.786,28.25H23.214A2.786,2.786,0,0,0,26,25.464V9.9a2.786,2.786,0,0,0-.816-1.97ZM13,24.536a3.714,3.714,0,1,1,3.714-3.714A3.714,3.714,0,0,1,13,24.536ZM18.571,6.863V12.7a.7.7,0,0,1-.7.7H4.411a.7.7,0,0,1-.7-.7V6.661a.7.7,0,0,1,.7-.7H17.673a.7.7,0,0,1,.492.2l.2.2a.7.7,0,0,1,.2.492Z" transform="translate(0 -2.25)" fill="#fff"/>
</svg>
