<svg xmlns="http://www.w3.org/2000/svg" width="70.247" height="70.246" viewBox="0 0 70.247 70.246"><defs><style>.a{fill:#00cf66;}.b{fill:#ffd188;}.c{fill:#fc0;}</style></defs><path class="a" d="M7.134,330.812H2.058A2.058,2.058,0,0,1,0,328.754v-24.7A2.058,2.058,0,0,1,2.058,302H7.134a2.058,2.058,0,0,1,2.058,2.058v24.7A2.058,2.058,0,0,1,7.134,330.812Z" transform="translate(0 -260.566)"/><path class="b" d="M151.366,317.051a4.967,4.967,0,0,0-5.053.155l-7.53,4.769a8.925,8.925,0,0,1-8.855,7.861H119.7a2.1,2.1,0,0,1-2.114-1.959,2.058,2.058,0,0,1,2.056-2.157h10.29a4.807,4.807,0,0,0,4.8-4.918,4.861,4.861,0,0,0-4.891-4.686H118.266l-1.342-1.007a15.546,15.546,0,0,0-17.326-.894L97,315.774V336.7h34.592a10.29,10.29,0,0,0,5.631-1.678l14.466-9.459a4.967,4.967,0,0,0-.323-8.509Z" transform="translate(-83.692 -269.194)"/><path class="c" d="M104.15,0A17.15,17.15,0,1,0,121.3,17.15,17.169,17.169,0,0,0,104.15,0Zm2.058,25.666v.4a2.058,2.058,0,0,1-4.116,0v-.4a5.5,5.5,0,0,1-3.32-3.989,2.058,2.058,0,0,1,4.034-.819,1.372,1.372,0,1,0,1.344-1.648,5.487,5.487,0,0,1-2.058-10.574v-.4a2.058,2.058,0,0,1,4.116,0v.4a5.5,5.5,0,0,1,3.32,3.989,2.058,2.058,0,1,1-4.034.819,1.372,1.372,0,1,0-1.344,1.648,5.487,5.487,0,0,1,2.058,10.574Z" transform="translate(-75.064)"/><path d="M351.139,44.831a2.058,2.058,0,0,0-1.864-1.185h-3a35.111,35.111,0,0,0-20.5-23.777,21.243,21.243,0,0,1,5.067,19.393,22.9,22.9,0,0,1,2.4,4.384H331.44a2.058,2.058,0,0,0-1.581,3.376l8.918,10.7a2.058,2.058,0,0,0,3.162,0l8.918-10.7A2.058,2.058,0,0,0,351.139,44.831Z" transform="translate(-281.087 -17.143)"/></svg>