<svg xmlns="http://www.w3.org/2000/svg" width="113.825" height="64.027" viewBox="0 0 113.825 64.027"><defs><style>.a{fill:#ffc107;}.b{fill:#f44336;}.c{fill:#fafafa;}.d{fill:#455a64;}</style></defs><g transform="translate(0 7.114)"><path class="a" d="M28.456,147.557A3.558,3.558,0,0,0,24.9,144H3.557a3.557,3.557,0,1,0,0,7.114H24.9A3.558,3.558,0,0,0,28.456,147.557Z" transform="translate(0 -144)"/><path class="a" d="M49.785,208H35.557a3.557,3.557,0,0,0,0,7.114H49.785a3.557,3.557,0,0,0,0-7.114Z" transform="translate(-24.886 -193.772)"/><path class="a" d="M74.671,272H67.557a3.557,3.557,0,0,0,0,7.114h7.114a3.557,3.557,0,1,0,0-7.114Z" transform="translate(-49.772 -243.544)"/></g><path class="b" d="M362.179,195.514l-10.671-17.785A3.549,3.549,0,0,0,348.456,176h-24.9A3.558,3.558,0,0,0,320,179.557v35.57a3.558,3.558,0,0,0,3.557,3.557h35.57a3.558,3.558,0,0,0,3.557-3.557V197.342A3.5,3.5,0,0,0,362.179,195.514Z" transform="translate(-248.859 -161.772)"/><path class="c" d="M384,208h12.215l8.537,14.228H384Z" transform="translate(-298.631 -186.658)"/><path class="a" d="M149.355,112h-49.8A3.558,3.558,0,0,0,96,115.557v49.8a3.558,3.558,0,0,0,3.557,3.557h53.355V115.557A3.558,3.558,0,0,0,149.355,112Z" transform="translate(-74.658 -112)"/><circle class="c" cx="7" cy="7" r="7" transform="translate(89.216 46.571)"/><path class="d" d="M394.671,325.342a10.671,10.671,0,1,1,10.671-10.671A10.684,10.684,0,0,1,394.671,325.342Zm0-14.228a3.557,3.557,0,1,0,3.557,3.557A3.567,3.567,0,0,0,394.671,311.114Z" transform="translate(-298.631 -261.316)"/><path class="b" d="M152.913,318.228H99.557A3.558,3.558,0,0,1,96,314.671V304h56.913Z" transform="translate(-74.658 -261.316)"/><circle class="c" cx="7" cy="7" r="7" transform="translate(39.216 46.571)"/><path class="d" d="M170.671,325.342a10.671,10.671,0,1,1,10.671-10.671A10.684,10.684,0,0,1,170.671,325.342Zm0-14.228a3.557,3.557,0,1,0,3.557,3.557A3.563,3.563,0,0,0,170.671,311.114Z" transform="translate(-124.43 -261.316)"/></svg>