<svg xmlns="http://www.w3.org/2000/svg" width="78.905" height="78.832" viewBox="0 0 78.905 78.832"><defs><style>.a{fill:#fc0;}.b{fill:#00cf66;}</style></defs><g transform="translate(0 -0.236)"><g transform="translate(0 0.236)"><g transform="translate(16.088 19.003)"><path class="a" d="M233.762,128.558a8.182,8.182,0,0,0,1.888-5.017,8.289,8.289,0,0,0-5.039,1.91,7.035,7.035,0,0,0-1.73,3.693,14.645,14.645,0,0,1,4.162-.6Q233.4,128.541,233.762,128.558Z" transform="translate(-209.696 -123.541)"/><path class="a" d="M127.74,185.985a9.965,9.965,0,0,0-5.368,1.56,2.334,2.334,0,0,1-2.585-.008,10,10,0,0,0-12.434,1.386,10.112,10.112,0,0,0-2.96,7.116c-.036,5.194,3.38,9,8.6,14.216,1.015,1.015,1.692,1.077,4.852-.375.794-.365,1.615-.742,2.492-1.045a2.313,2.313,0,0,1,1.507,0c.877.3,1.7.68,2.492,1.045,3.16,1.452,3.836,1.39,4.852.375,5.216-5.216,8.632-9.023,8.6-14.216a10.113,10.113,0,0,0-2.96-7.117,9.931,9.931,0,0,0-7.079-2.938Z" transform="translate(-104.392 -176.362)"/></g><path class="a" d="M47.782,65.788A17.927,17.927,0,0,1,62.05,48.251a34.027,34.027,0,0,0,3-13.623V18.414a2.312,2.312,0,0,0-1.237-2.047L33.6.5a2.311,2.311,0,0,0-2.149,0L1.237,16.367A2.312,2.312,0,0,0,0,18.414V34.628C0,44,4.386,53.663,13.037,63.36A97.5,97.5,0,0,0,30.066,78.238a4.346,4.346,0,0,0,4.92,0A99.631,99.631,0,0,0,47.881,67.668a18.042,18.042,0,0,1-.1-1.88ZM38.6,58.458a14.567,14.567,0,0,1-4.509-1.5c-.453-.208-.89-.409-1.315-.586-.425.177-.862.378-1.315.586a14.566,14.566,0,0,1-4.509,1.5,7.131,7.131,0,0,1-.75.04,6.618,6.618,0,0,1-4.792-2.1c-5.856-5.856-10-10.541-9.95-17.518a14.71,14.71,0,0,1,4.31-10.349A14.633,14.633,0,0,1,30.47,24.9V16.78a2.311,2.311,0,0,1,4.622-.019c3.935-2.677,9.253-2.158,9.5-2.132a2.312,2.312,0,0,1,2.057,2.058,16.5,16.5,0,0,1-1.616,8.661A14.752,14.752,0,0,1,54.1,38.885C54.146,45.862,50,50.546,44.148,56.4A6.58,6.58,0,0,1,38.6,58.458Z" transform="translate(0 -0.236)"/></g><path class="b" d="M353.3,339.416a13.28,13.28,0,1,0,13.25,13.28A13.28,13.28,0,0,0,353.3,339.416Zm5.343,10.036-4.76,8.244a2.312,2.312,0,0,1-4,0l-1.923-3.331a2.312,2.312,0,0,1,3.922-2.443l2.76-4.781a2.312,2.312,0,0,1,4,2.311Z" transform="translate(-287.643 -286.908)"/></g></svg>