<svg xmlns="http://www.w3.org/2000/svg" width="56.827" height="85.475" viewBox="0 0 56.827 85.475"><defs><style>.a{fill:#9f9990;}.b{fill:#f9fbfc;}.c{fill:#fc0;}.d{fill:#31373d;}</style></defs><g transform="translate(-85.688 0)"><path class="a" d="M132.424,13.875V7.992a3.969,3.969,0,0,0-5.1-3.8L89.7,13.746v.129Z" transform="translate(-3.343 -3.349)"/><path class="b" d="M140.451,136.6H89.7V62.2h50.749a4.736,4.736,0,0,1,4.736,4.736v64.936A4.736,4.736,0,0,1,140.451,136.6Z" transform="translate(-3.343 -51.8)"/><g transform="translate(133.081 11.54)"><path class="c" d="M408.886,69.581a.519.519,0,0,0,1.035.059,4.773,4.773,0,0,0-.565-.574A.519.519,0,0,0,408.886,69.581Z" transform="translate(-402.25 -69.061)"/><path class="c" d="M398.993,79.449a.52.52,0,1,0,.52.52A.52.52,0,0,0,398.993,79.449Z" transform="translate(-393.578 -77.708)"/><path class="c" d="M409.407,89.107a.521.521,0,1,0,.52.521A.52.52,0,0,0,409.407,89.107Z" transform="translate(-402.251 -85.751)"/><path class="c" d="M398.993,99.521a.52.52,0,1,0,.52.52A.52.52,0,0,0,398.993,99.521Z" transform="translate(-393.578 -94.424)"/><path class="c" d="M409.407,109.179a.521.521,0,1,0,.52.521A.52.52,0,0,0,409.407,109.179Z" transform="translate(-402.251 -102.468)"/><path class="c" d="M398.993,119.593a.52.52,0,1,0,.52.52A.52.52,0,0,0,398.993,119.593Z" transform="translate(-393.578 -111.141)"/><ellipse class="c" cx="0.52" cy="0.521" rx="0.52" ry="0.521" transform="translate(6.631 10.085) rotate(-0.63)"/><path class="c" d="M398.993,139.666a.52.52,0,1,0,.52.52A.52.52,0,0,0,398.993,139.666Z" transform="translate(-393.578 -127.858)"/><path class="c" d="M409.407,149.324a.521.521,0,1,0,.52.521A.52.52,0,0,0,409.407,149.324Z" transform="translate(-402.251 -135.902)"/><path class="c" d="M398.993,159.738a.52.52,0,1,0,.52.52A.52.52,0,0,0,398.993,159.738Z" transform="translate(-393.578 -144.575)"/><path class="c" d="M409.407,169.4a.521.521,0,1,0,.52.521A.52.52,0,0,0,409.407,169.4Z" transform="translate(-402.251 -152.618)"/><path class="c" d="M398.993,179.81a.52.52,0,1,0,.52.52A.52.52,0,0,0,398.993,179.81Z" transform="translate(-393.578 -161.292)"/><path class="c" d="M409.407,189.468a.521.521,0,1,0,.52.521A.52.52,0,0,0,409.407,189.468Z" transform="translate(-402.251 -169.335)"/><path class="c" d="M398.993,199.883a.52.52,0,1,0,.52.52A.52.52,0,0,0,398.993,199.883Z" transform="translate(-393.578 -178.009)"/><path class="c" d="M409.407,209.541a.521.521,0,1,0,.52.521A.52.52,0,0,0,409.407,209.541Z" transform="translate(-402.251 -186.052)"/><path class="c" d="M398.993,219.955a.52.52,0,1,0,.52.52A.52.52,0,0,0,398.993,219.955Z" transform="translate(-393.578 -194.726)"/><ellipse class="c" cx="0.52" cy="0.521" rx="0.52" ry="0.521" transform="translate(6.628 26.863) rotate(-0.63)"/><path class="c" d="M398.993,240.027a.52.52,0,1,0,.52.52A.52.52,0,0,0,398.993,240.027Z" transform="translate(-393.578 -211.442)"/><path class="c" d="M409.407,249.685a.521.521,0,1,0,.52.521A.52.52,0,0,0,409.407,249.685Z" transform="translate(-402.251 -219.486)"/><path class="c" d="M398.993,260.1a.52.52,0,1,0,.52.52A.52.52,0,0,0,398.993,260.1Z" transform="translate(-393.578 -228.16)"/><path class="c" d="M409.407,269.758a.521.521,0,1,0,.52.521A.52.52,0,0,0,409.407,269.758Z" transform="translate(-402.251 -236.203)"/><path class="c" d="M398.993,280.172a.52.52,0,1,0,.52.52A.52.52,0,0,0,398.993,280.172Z" transform="translate(-393.578 -244.876)"/><path class="c" d="M409.407,289.83a.521.521,0,1,0,.52.521A.52.52,0,0,0,409.407,289.83Z" transform="translate(-402.251 -252.92)"/><path class="c" d="M398.993,300.244a.52.52,0,1,0,.52.52A.52.52,0,0,0,398.993,300.244Z" transform="translate(-393.578 -261.593)"/><path class="c" d="M409.407,309.9a.521.521,0,1,0,.52.521A.521.521,0,0,0,409.407,309.9Z" transform="translate(-402.251 -269.636)"/><path class="c" d="M398.993,320.317a.52.52,0,1,0,.52.52A.52.52,0,0,0,398.993,320.317Z" transform="translate(-393.578 -278.31)"/><ellipse class="c" cx="0.52" cy="0.521" rx="0.52" ry="0.521" transform="translate(6.626 43.642) rotate(-0.63)"/><path class="c" d="M398.993,340.389a.52.52,0,1,0,.52.52A.52.52,0,0,0,398.993,340.389Z" transform="translate(-393.578 -295.027)"/><path class="c" d="M409.407,350.047a.521.521,0,1,0,.52.521A.521.521,0,0,0,409.407,350.047Z" transform="translate(-402.251 -303.07)"/><path class="c" d="M398.993,360.461a.52.52,0,1,0,.52.52A.52.52,0,0,0,398.993,360.461Z" transform="translate(-393.578 -311.743)"/><ellipse class="c" cx="0.52" cy="0.521" rx="0.52" ry="0.521" transform="translate(6.625 50.353) rotate(-0.63)"/><path class="c" d="M398.993,380.534a.521.521,0,1,0,.52.52A.52.52,0,0,0,398.993,380.534Z" transform="translate(-393.578 -328.461)"/><path class="c" d="M409.407,390.192a.521.521,0,1,0,.52.521A.521.521,0,0,0,409.407,390.192Z" transform="translate(-402.251 -336.504)"/><path class="c" d="M398.993,400.606a.52.52,0,1,0,.52.52A.52.52,0,0,0,398.993,400.606Z" transform="translate(-393.578 -345.177)"/><path class="c" d="M409.407,410.264a.521.521,0,1,0,.52.521A.521.521,0,0,0,409.407,410.264Z" transform="translate(-402.251 -353.221)"/><path class="c" d="M398.993,420.678a.52.52,0,1,0,.52.52A.52.52,0,0,0,398.993,420.678Z" transform="translate(-393.578 -361.894)"/><path class="c" d="M409.407,430.336a.521.521,0,1,0,.52.521A.52.52,0,0,0,409.407,430.336Z" transform="translate(-402.251 -369.937)"/><path class="c" d="M398.993,440.751a.52.52,0,1,0,.52.52A.52.52,0,0,0,398.993,440.751Z" transform="translate(-393.578 -378.611)"/><path class="c" d="M409.407,450.409a.521.521,0,1,0,.52.521A.52.52,0,0,0,409.407,450.409Z" transform="translate(-402.251 -386.655)"/><path class="c" d="M398.993,460.823a.52.52,0,1,0,.52.52A.52.52,0,0,0,398.993,460.823Z" transform="translate(-393.578 -395.328)"/><ellipse class="c" cx="0.52" cy="0.521" rx="0.52" ry="0.521" transform="translate(6.622 67.132) rotate(-0.63)"/><path class="c" d="M398.993,480.9a.52.52,0,1,0,.52.52A.52.52,0,0,0,398.993,480.9Z" transform="translate(-393.578 -412.044)"/><path class="c" d="M409.928,491.074a.52.52,0,1,0-.52.521A.52.52,0,0,0,409.928,491.074Z" transform="translate(-402.251 -420.088)"/><path class="c" d="M399.514,501.488a.52.52,0,1,0-.837.411,4.72,4.72,0,0,0,.816-.271A.518.518,0,0,0,399.514,501.488Z" transform="translate(-393.578 -428.762)"/><path class="c" d="M389.334,69.034a.521.521,0,1,0,.521.521A.521.521,0,0,0,389.334,69.034Z" transform="translate(-385.533 -69.034)"/><path class="c" d="M378.92,79.449a.52.52,0,1,0,.521.52A.52.52,0,0,0,378.92,79.449Z" transform="translate(-376.86 -77.708)"/><path class="c" d="M389.334,89.107a.521.521,0,1,0,.521.521A.521.521,0,0,0,389.334,89.107Z" transform="translate(-385.533 -85.751)"/><path class="c" d="M378.92,99.521a.52.52,0,1,0,.521.52A.52.52,0,0,0,378.92,99.521Z" transform="translate(-376.86 -94.424)"/><path class="c" d="M389.334,109.179a.521.521,0,1,0,.521.521A.521.521,0,0,0,389.334,109.179Z" transform="translate(-385.533 -102.468)"/><path class="c" d="M378.92,119.593a.52.52,0,1,0,.521.52A.52.52,0,0,0,378.92,119.593Z" transform="translate(-376.86 -111.141)"/><circle class="c" cx="0.521" cy="0.521" r="0.521" transform="translate(3.28 10.066)"/><path class="c" d="M378.92,139.666a.52.52,0,1,0,.521.52A.52.52,0,0,0,378.92,139.666Z" transform="translate(-376.86 -127.858)"/><path class="c" d="M389.334,149.324a.521.521,0,1,0,.521.521A.521.521,0,0,0,389.334,149.324Z" transform="translate(-385.533 -135.902)"/><path class="c" d="M378.92,159.738a.52.52,0,1,0,.521.52A.52.52,0,0,0,378.92,159.738Z" transform="translate(-376.86 -144.575)"/><path class="c" d="M389.334,169.4a.521.521,0,1,0,.521.521A.521.521,0,0,0,389.334,169.4Z" transform="translate(-385.533 -152.618)"/><path class="c" d="M378.92,179.81a.52.52,0,1,0,.521.52A.52.52,0,0,0,378.92,179.81Z" transform="translate(-376.86 -161.292)"/><path class="c" d="M389.334,189.468a.521.521,0,1,0,.521.521A.521.521,0,0,0,389.334,189.468Z" transform="translate(-385.533 -169.335)"/><path class="c" d="M378.92,199.883a.52.52,0,1,0,.521.52A.52.52,0,0,0,378.92,199.883Z" transform="translate(-376.86 -178.009)"/><path class="c" d="M389.334,209.541a.521.521,0,1,0,.521.521A.521.521,0,0,0,389.334,209.541Z" transform="translate(-385.533 -186.052)"/><path class="c" d="M378.92,219.955a.52.52,0,1,0,.521.52A.52.52,0,0,0,378.92,219.955Z" transform="translate(-376.86 -194.726)"/><circle class="c" cx="0.521" cy="0.521" r="0.521" transform="translate(3.28 26.844)"/><path class="c" d="M378.92,240.027a.52.52,0,1,0,.521.52A.52.52,0,0,0,378.92,240.027Z" transform="translate(-376.86 -211.442)"/><path class="c" d="M389.334,249.685a.521.521,0,1,0,.521.521A.521.521,0,0,0,389.334,249.685Z" transform="translate(-385.533 -219.486)"/><path class="c" d="M378.92,260.1a.52.52,0,1,0,.521.52A.52.52,0,0,0,378.92,260.1Z" transform="translate(-376.86 -228.16)"/><path class="c" d="M389.334,269.758a.521.521,0,1,0,.521.521A.521.521,0,0,0,389.334,269.758Z" transform="translate(-385.533 -236.203)"/><path class="c" d="M378.92,280.172a.52.52,0,1,0,.521.52A.52.52,0,0,0,378.92,280.172Z" transform="translate(-376.86 -244.876)"/><path class="c" d="M389.334,289.83a.521.521,0,1,0,.521.521A.521.521,0,0,0,389.334,289.83Z" transform="translate(-385.533 -252.92)"/><path class="c" d="M378.92,300.244a.52.52,0,1,0,.521.52A.52.52,0,0,0,378.92,300.244Z" transform="translate(-376.86 -261.593)"/><path class="c" d="M389.334,309.9a.521.521,0,1,0,.521.521A.521.521,0,0,0,389.334,309.9Z" transform="translate(-385.533 -269.636)"/><path class="c" d="M378.92,320.317a.52.52,0,1,0,.521.52A.52.52,0,0,0,378.92,320.317Z" transform="translate(-376.86 -278.31)"/><circle class="c" cx="0.521" cy="0.521" r="0.521" transform="translate(3.28 43.621)"/><path class="c" d="M378.92,340.389a.52.52,0,1,0,.521.52A.52.52,0,0,0,378.92,340.389Z" transform="translate(-376.86 -295.027)"/><path class="c" d="M389.334,350.047a.521.521,0,1,0,.521.521A.521.521,0,0,0,389.334,350.047Z" transform="translate(-385.533 -303.07)"/><path class="c" d="M378.92,360.461a.52.52,0,1,0,.521.52A.52.52,0,0,0,378.92,360.461Z" transform="translate(-376.86 -311.743)"/><circle class="c" cx="0.521" cy="0.521" r="0.521" transform="translate(3.28 50.332)"/><path class="c" d="M378.92,380.534a.521.521,0,1,0,.521.52A.52.52,0,0,0,378.92,380.534Z" transform="translate(-376.86 -328.461)"/><path class="c" d="M389.334,390.192a.521.521,0,1,0,.521.521A.521.521,0,0,0,389.334,390.192Z" transform="translate(-385.533 -336.504)"/><path class="c" d="M378.92,400.606a.52.52,0,1,0,.521.52A.52.52,0,0,0,378.92,400.606Z" transform="translate(-376.86 -345.177)"/><path class="c" d="M389.334,410.264a.521.521,0,1,0,.521.521A.521.521,0,0,0,389.334,410.264Z" transform="translate(-385.533 -353.221)"/><path class="c" d="M378.92,420.678a.52.52,0,1,0,.521.52A.52.52,0,0,0,378.92,420.678Z" transform="translate(-376.86 -361.894)"/><path class="c" d="M389.334,430.336a.521.521,0,1,0,.521.521A.521.521,0,0,0,389.334,430.336Z" transform="translate(-385.533 -369.937)"/><path class="c" d="M378.92,440.751a.52.52,0,1,0,.521.52A.52.52,0,0,0,378.92,440.751Z" transform="translate(-376.86 -378.611)"/><path class="c" d="M389.334,450.409a.521.521,0,1,0,.521.521A.521.521,0,0,0,389.334,450.409Z" transform="translate(-385.533 -386.655)"/><path class="c" d="M378.92,460.823a.52.52,0,1,0,.521.52A.52.52,0,0,0,378.92,460.823Z" transform="translate(-376.86 -395.328)"/><circle class="c" cx="0.521" cy="0.521" r="0.521" transform="translate(3.28 67.11)"/><path class="c" d="M378.92,480.9a.52.52,0,1,0,.521.52A.52.52,0,0,0,378.92,480.9Z" transform="translate(-376.86 -412.044)"/><path class="c" d="M389.855,491.074a.521.521,0,1,0-.521.521A.521.521,0,0,0,389.855,491.074Z" transform="translate(-385.533 -420.088)"/><path class="c" d="M378.92,500.968a.52.52,0,1,0,.521.52A.52.52,0,0,0,378.92,500.968Z" transform="translate(-376.86 -428.762)"/><path class="c" d="M369.636,69.034a.519.519,0,0,0-.446.255,4.782,4.782,0,0,1,.612.756.519.519,0,0,0-.167-1.011Z" transform="translate(-369.19 -69.034)"/><path class="c" d="M371.3,492.654a.519.519,0,0,0,.418-.828,4.752,4.752,0,0,1-.53.815.518.518,0,0,0,.112.013Z" transform="translate(-370.851 -421.148)"/></g><path class="d" d="M187.593,385.135H158.859a.671.671,0,1,1,0-1.342h28.734a.671.671,0,0,1,0,1.342Z" transform="translate(-60.38 -319.634)"/><path class="d" d="M187.593,427.3H158.859a.671.671,0,1,1,0-1.342h28.734a.671.671,0,1,1,0,1.342Z" transform="translate(-60.38 -354.752)"/><path class="c" d="M182.579,150.351h-1.043a13.228,13.228,0,0,0-11.6-11.587v-3.471a1.538,1.538,0,1,0-3.063,0v3.471a13.228,13.228,0,0,0-11.6,11.587h-1.424a1.678,1.678,0,1,0,0,3.355h28.734a1.678,1.678,0,1,0,0-3.355Z" transform="translate(-55.366 -111.279)"/><g transform="translate(85.688 0)"><path class="d" d="M179.235,146.337h-.459a13.928,13.928,0,0,0-11.515-11.5V131.95a2.207,2.207,0,1,0-4.405,0v2.887a13.928,13.928,0,0,0-11.515,11.5h-.84a2.349,2.349,0,1,0,0,4.7h28.734a2.349,2.349,0,1,0,0-4.7ZM164.2,131.95a.871.871,0,1,1,1.721,0v2.739c-.285-.018-.571-.03-.86-.03s-.576.012-.86.03Zm.86,4.052a12.572,12.572,0,0,1,12.353,10.335H152.706A12.572,12.572,0,0,1,165.058,136Zm14.176,13.691H150.5a1.007,1.007,0,0,1,0-2.013h28.734a1.007,1.007,0,1,1,0,2.013Z" transform="translate(-137.71 -107.936)"/><path class="d" d="M257.942,290.715a.587.587,0,0,1-.587-.587v-6.789a.587.587,0,0,1,1.07-.334l3.681,5.33-.048-5a.587.587,0,0,1,.582-.593h.006a.587.587,0,0,1,.587.581l.064,6.573a.716.716,0,0,1-.479.717.682.682,0,0,1-.767-.29l-3.52-5.1v4.905A.587.587,0,0,1,257.942,290.715Z" transform="translate(-228.657 -235.474)"/><path class="d" d="M161.5,290.716a.739.739,0,0,1-.7-.5l-.007-.021-1.426-4.832-.87,4.822a.587.587,0,0,1-1.156-.209l1.2-6.624a.741.741,0,0,1,1.431-.1l.007.021,1.52,5.153,1.467-5.146.006-.02a.741.741,0,0,1,1.431.081l1.268,6.633a.587.587,0,0,1-1.154.221l-.923-4.831-1.377,4.829-.006.02a.739.739,0,0,1-.7.512Z" transform="translate(-145.354 -235.474)"/><path class="d" d="M223.722,289.85H221.47v-2.2h2.043a.587.587,0,1,0,0-1.175H221.47v-2.2h2.253a.587.587,0,0,0,0-1.175h-2.84a.587.587,0,0,0-.587.587v6.74a.587.587,0,0,0,.587.587h2.84a.587.587,0,1,0,0-1.174Z" transform="translate(-197.793 -235.783)"/><path class="d" d="M308.853,290.715h-.005a2.874,2.874,0,0,1-1.569-.451,2.562,2.562,0,0,1-1.338-2.258v-4.68a.587.587,0,1,1,1.175,0v4.68a1.42,1.42,0,0,0,.8,1.268,1.719,1.719,0,0,0,.938.266h0a1.882,1.882,0,0,0,.855-.194,1.424,1.424,0,0,0,.959-1.345v-4.676a.587.587,0,1,1,1.175,0V288a2.59,2.59,0,0,1-1.605,2.394A3.047,3.047,0,0,1,308.853,290.715Z" transform="translate(-269.121 -235.474)"/><path class="d" d="M137.091,9.726h-7.339V4.643A4.64,4.64,0,0,0,123.8.194l-37.6,9.553a.654.654,0,0,0-.065.023c-.012,0-.024.007-.036.012a.677.677,0,0,0-.106.058l-.017.013a.685.685,0,0,0-.076.063c-.01.009-.018.02-.027.03a.7.7,0,0,0-.05.061c-.009.013-.017.026-.025.039a.678.678,0,0,0-.036.066c-.007.014-.013.029-.019.043a.675.675,0,0,0-.024.077c0,.014-.008.027-.011.041a.67.67,0,0,0-.013.125V84.8a.671.671,0,0,0,.671.671h50.732a5.43,5.43,0,0,0,5.424-5.424V15.15a5.43,5.43,0,0,0-5.424-5.424Zm-12.95-8.235.027-.007a3.3,3.3,0,0,1,4.242,3.16V9.726H91.726Zm17.031,78.56a4.086,4.086,0,0,1-4.082,4.082H87.03V11.068h50.061a4.086,4.086,0,0,1,4.082,4.082Z" transform="translate(-85.688 0)"/></g></g></svg>