<?xml version="1.0" encoding="UTF-8"?>
<svg xmlns="http://www.w3.org/2000/svg" viewBox="0 0 512 512" width="512" height="512"><g id="outline"><path d="M496,176a7.988,7.988,0,0,0-3.72-6.751c-.023-.015-.038-.031-.061-.046l-85.266-52.924a32.1,32.1,0,0,0,16.225-21.1,32,32,0,1,0-38.356-38.356,32.048,32.048,0,0,0-24.8,30.327L285.532,40.915a55.662,55.662,0,0,0-59.064,0L19.781,169.2c-.021.013-.033.029-.054.042A7.987,7.987,0,0,0,16,176v52a6.264,6.264,0,0,0,.167,1.5,37.871,37.871,0,0,0,10.325,22.676A23.962,23.962,0,0,0,22.131,288a23.983,23.983,0,0,0,14.31,39.735,31.982,31.982,0,0,0,.009,32.529,23.991,23.991,0,0,0-9.958,43.561,37.858,37.858,0,0,0-10.445,24.319A8.066,8.066,0,0,0,16,429v59a8,8,0,0,0,8,8H488a8,8,0,0,0,8-8V431c0-.169-.015-.334-.025-.5.01-.166.025-.331.025-.5a37.857,37.857,0,0,0-10.492-26.175,23.991,23.991,0,0,0-9.789-43.536,31.955,31.955,0,0,0-.341-32.531A23.98,23.98,0,0,0,489.869,288a23.971,23.971,0,0,0-4.356-35.83A37.859,37.859,0,0,0,496,226ZM416,48a16,16,0,1,1-16,16A16.019,16.019,0,0,1,416,48ZM385.42,73.432A32.141,32.141,0,0,0,406.568,94.58,15.99,15.99,0,1,1,385.42,73.432Zm78.123,135.983C455.785,204.064,446.993,198,430,198s-25.784,6.064-33.542,11.415C389.506,214.211,384.012,218,372,218s-17.5-3.789-24.457-8.585C339.788,204.064,331,198,314.005,198s-25.783,6.064-33.541,11.415c-6.955,4.8-12.448,8.585-24.456,8.585s-17.5-3.789-24.458-8.586C223.792,204.064,215,198,198.009,198s-25.785,6.064-33.543,11.415c-6.955,4.8-12.449,8.585-24.458,8.585s-17.5-3.789-24.46-8.586C107.789,204.064,99,198,82,198s-25.785,6.064-33.544,11.414c-5.194,3.582-9.575,6.6-16.46,7.9V184H480v33.314C473.116,216.014,468.736,213,463.543,209.415ZM472,264a8,8,0,0,1,0,16H398.624a23.944,23.944,0,0,0,0-16ZM278.624,280a23.944,23.944,0,0,0,0-16H376a8,8,0,0,1,0,16Zm-52.735,0,31.685-15.843A8,8,0,0,1,256,280ZM40,280a8,8,0,0,1,0-16H54.243l34.666,16Zm52.424-16H222.111l-62.25,31.125ZM54,248a22.039,22.039,0,0,1-20.745-14.671c11.208-1.722,18.079-6.461,24.289-10.743C64.5,217.789,69.994,214,82,214s17.5,3.789,24.46,8.586c7.759,5.35,16.552,11.414,33.544,11.414s25.784-6.064,33.542-11.414C180.505,217.789,186,214,198.009,214s17.5,3.789,24.457,8.585C230.224,227.936,239.017,234,256.008,234s25.782-6.064,33.54-11.415C296.5,217.789,302,214,314.005,214s17.5,3.789,24.457,8.585C346.22,227.936,355.013,234,372,234s25.784-6.064,33.542-11.415C412.5,217.789,417.994,214,430,214s17.5,3.789,24.456,8.585c6.208,4.282,13.08,9.021,24.286,10.744a22.053,22.053,0,0,1-18.913,14.593ZM234.905,54.509a39.763,39.763,0,0,1,42.19,0l84.582,52.5-31.334,31.334a8,8,0,0,0,11.314,11.314l33.982-33.982L459.941,168H52.059ZM122.343,338.343a8,8,0,0,0,11.314,11.314L155.314,328h41.372l-10.343,10.343a8,8,0,0,0,11.314,11.314L219.314,328h41.372l-10.343,10.343a8,8,0,0,0,11.314,11.314L283.314,328H296a16.019,16.019,0,0,1,16,16v16H63.657A15.993,15.993,0,0,1,64,328.017h.018c.114,0,.225-.012.338-.017h68.33ZM376,384v-8a8,8,0,0,1,0,16h-1.03A31.583,31.583,0,0,0,376,384Zm.021-24a8.3,8.3,0,0,1,7.582-7.991A8,8,0,0,1,392,360a31.539,31.539,0,0,0,.756,6.84A23.913,23.913,0,0,0,376.021,360Zm-10.96,48H458a22.039,22.039,0,0,1,20.745,14.671c-11.208,1.722-18.079,6.461-24.289,10.743C447.5,438.211,442.006,442,430,442s-17.5-3.789-24.46-8.586C397.777,428.064,388.984,422,371.992,422s-25.784,6.064-33.542,11.414C331.5,438.211,326,442,313.991,442s-17.5-3.789-24.457-8.585C281.776,428.064,272.983,422,255.992,422s-25.782,6.064-33.54,11.415C215.5,438.211,210,442,198,442s-17.5-3.789-24.457-8.585C165.78,428.064,156.987,422,140,422s-25.784,6.064-33.542,11.415C99.5,438.211,94.006,442,82,442s-17.5-3.789-24.456-8.585c-6.208-4.282-13.08-9.021-24.286-10.744A22.039,22.039,0,0,1,54,408H323.094a31.379,31.379,0,0,0,20.918,8c.2,0,.4,0,.6-.006A31.806,31.806,0,0,0,365.061,408ZM256,376a8,8,0,0,1,0,16H174.624a23.944,23.944,0,0,0,0-16Zm57.163,16H278.624a23.944,23.944,0,0,0,0-16H312v7.459A32.365,32.365,0,0,0,313.163,392ZM40,376H63.322c.219,0,.436.017.656.017h0c.115,0,.226-.012.339-.017H152a8,8,0,0,1,0,16H40a8,8,0,0,1,0-16ZM32,480V438.686c6.884,1.3,11.264,4.318,16.457,7.9C56.215,451.936,65.007,458,82,458s25.784-6.064,33.542-11.415C122.494,441.789,127.988,438,140,438s17.5,3.789,24.457,8.585C172.212,451.936,181,458,198,458s25.783-6.064,33.541-11.415c6.955-4.8,12.448-8.585,24.456-8.585s17.5,3.789,24.458,8.586C288.208,451.936,297,458,313.991,458s25.785-6.064,33.543-11.415c6.955-4.8,12.449-8.585,24.458-8.585s17.5,3.789,24.46,8.586C404.211,451.936,413,458,430,458s25.785-6.064,33.544-11.414c5.194-3.582,9.575-6.6,16.46-7.9V480Zm448-96a8.009,8.009,0,0,1-8,8H398.624a23.781,23.781,0,0,0,1.157-11.192,31.955,31.955,0,0,0,23.6,11.186,31.492,31.492,0,0,0,22.765-9.151,32.806,32.806,0,0,0,5.259-6.737C452.314,376.011,472,376,472,376A8.009,8.009,0,0,1,480,384Zm-24-40a15.916,15.916,0,0,1,3.882-10.418A15.955,15.955,0,0,1,456,358.133Zm16-32a31.789,31.789,0,0,0-15.805,4.193,8.138,8.138,0,0,0-.852.5A32.012,32.012,0,0,0,440,344v15.459a16.877,16.877,0,0,1-5.055,11.963A15.535,15.535,0,0,1,423.688,376,16.076,16.076,0,0,1,408,360a24.109,24.109,0,0,0-7.435-17.366,23.815,23.815,0,0,0-17.714-6.607A24.2,24.2,0,0,0,360,360.452V384a16.076,16.076,0,0,1-15.688,16q-.146,0-.291,0a15.6,15.6,0,0,1-10.966-4.578A16.877,16.877,0,0,1,328,383.459V344a32.036,32.036,0,0,0-32-32H40a8,8,0,0,1,0-16h83.576l33.071,15.264a8,8,0,0,0,6.931-.109L193.889,296H472a8,8,0,0,1,0,16Z"/><circle cx="256" cy="120" r="8"/><circle cx="136" cy="464" r="8"/><circle cx="256" cy="456" r="8"/><circle cx="368" cy="464" r="8"/><circle cx="376" cy="144" r="8"/><circle cx="312" cy="112" r="8"/><circle cx="296" cy="144" r="8"/><circle cx="136" cy="200" r="8"/><circle cx="256" cy="200" r="8"/><circle cx="368" cy="200" r="8"/><circle cx="224" cy="136" r="8"/><circle cx="200" cy="112" r="8"/><circle cx="160" cy="136" r="8"/><circle cx="264" cy="88" r="8"/></g></svg>
